<?xml version="1.0" encoding="utf-8"?>
<!-- Svg Vector Icons : http://www.onlinewebfonts.com/icon -->
<!DOCTYPE svg PUBLIC "-//W3C//DTD SVG 1.1//EN" "http://www.w3.org/Graphics/SVG/1.1/DTD/svg11.dtd">
<svg version="1.1" xmlns="http://www.w3.org/2000/svg" xmlns:xlink="http://www.w3.org/1999/xlink" x="0px" y="0px" viewBox="0 0 256 256" enable-background="new 0 0 256 256" xml:space="preserve">
<metadata> Svg Vector Icons : http://www.onlinewebfonts.com/icon </metadata>
<g><g><g><path fill="#000000" d="M104.3,11.5c-27.7,6.4-51.6,20.9-68.2,41.4c-8.9,10.8-19.7,31.9-23.3,45.5c-3.7,13.3-3.7,46,0,59.3c6.1,23,21.9,47.6,40,62.3c10.8,8.9,31.9,19.7,45.5,23.3c13.3,3.7,46,3.7,59.3,0c13.6-3.6,34.7-14.4,45.5-23.3c18.1-14.7,34-39.3,40-62.3c3.7-13.3,3.7-46,0-59.3c-6.1-23-21.9-47.6-40-62.3c-10.5-8.7-31.7-19.6-44.8-23.1C146.7,9.8,115.1,8.9,104.3,11.5z M142.1,70.9c17.4,4.6,31,15.6,38.7,31.1c17.3,35.6-3.9,76.7-43.6,84.1c-30.8,5.8-61.2-16.5-67.3-48.9C65.7,115,77.3,89.9,97,78C111.7,69.3,126.5,66.9,142.1,70.9z"/><path fill="#000000" d="M116,107.7c-15.7,10.5-15.7,30.1,0,40.6c14.5,9.8,35.7-2.2,35.7-20.3C151.7,109.9,130.5,97.9,116,107.7z M133,117.8c8.6,4,8.2,17.1-0.7,20.6c-9.3,3.9-18.5-5.3-14.8-14.7C120.3,117.2,126.4,114.8,133,117.8z"/></g></g></g>
</svg>